<svg height="36" viewBox="0 0 200 36" width="200" xmlns="http://www.w3.org/2000/svg"><g fill="#fff" fill-rule="evenodd"><g fill-rule="nonzero" transform="translate(51.951952)"><path d="m22.3033033 2.52252252c2.0640641 1.68368369 3.0960961 4.0960961 3.0960961 7.23723724.0535745 1.93651004-.5450166 3.83486854-1.6996997 5.39039044-1.1531687 1.503217-2.773894 2.5798266-4.6066066 3.06006v.0960961c1.1480676.3953948 2.1588878 1.1113056 2.9129129 2.0630631.7127127.9229229 1.4734735 2.4684684 2.2822823 4.6366366l3.4474474 9.5675676h-7.7657657l-2.7687688-8.2072072c-.6486486-1.8778779-1.4014014-3.1791792-2.2582583-3.9039039-.8568568-.7247248-2.1271271-1.0890891-3.8108108-1.0930931h-3.9309309v13.2132132h-7.14114114v-34.5825826h12.72672674c4.2722723 0 7.4444444.84084084 9.5165165 2.52252252zm-15.1021021 13.16216218h5.0510511c3.9819819 0 5.9729729-1.7017017 5.9729729-5.1051051 0-3.20320322-2.1201201-4.80480483-6.3603603-4.80480483h-4.6636637z"/><path d="m47.3843844 10.7297297c1.8814004 1.0564687 3.4095703 2.6441777 4.3933934 4.5645646 1.033033 1.975976 1.5495495 4.2912913 1.5495495 6.9459459 0 2.6546547-.5175175 4.968969-1.5525525 6.942943-.9836765 1.9204915-2.5118829 3.5082383-4.3933934 4.5645645-1.8938939 1.0690691-4.1191191 1.6036037-6.6756757 1.6036037s-4.7827828-.5345346-6.6786787-1.6036037c-1.8816207-1.0561837-3.4098635-2.6439684-4.3933934-4.5645645-1.037037-1.973974-1.5545545-4.2882883-1.5525583-6.942943.0020078-2.6546546.5195253-4.9689689 1.5525583-6.9429429.9836765-1.9204915 2.5118829-3.5082383 4.3933934-4.5645646 1.8938939-1.06906904 4.1201201-1.60360357 6.6786787-1.60360357s4.7847848.53353353 6.6786787 1.60060057zm-10.6846847 5.7807808c-.986987 1.4254254-1.4804805 3.3353353-1.4804805 5.7297297s.4934935 4.3043043 1.4804805 5.7297298c.8954599 1.3358073 2.3978301 2.1373925 4.006006 2.1373925s3.1105462-.8015852 4.006006-2.1373925c.986987-1.4234235 1.4804805-3.3333334 1.4804805-5.7297298s-.4934935-4.3063063-1.4804805-5.7297297c-.8954598-1.3358073-2.3978301-2.1373925-4.006006-2.1373925s-3.1105461.8015852-4.006006 2.1373925z"/><path d="m56.7327327 34.5735736v-34.5735736h6.8048048v34.5735736z"/><path d="m68.2402402 34.5735736v-34.5735736h6.7987988v34.5735736z"/><path d="m86.5945946 12.8678679c.7435474-1.1314336 1.774845-2.0445725 2.987988-2.6456457 1.2410066-.62968292 2.6144122-.95398785 4.006006-.94594592 1.9122409-.03811236 3.7885522.52257607 5.3663664 1.60360362 1.593869 1.1406064 2.824363 2.7173072 3.543543 4.5405405.864426 2.1686815 1.285134 4.4887028 1.237238 6.8228228.048403 2.336419-.380784 4.6581161-1.261262 6.8228229-.739697 1.8284852-1.990859 3.4049491-3.6036031 4.5405405-1.5919469 1.0820681-3.4809168 1.6424625-5.4054054 1.6036036-1.423555.007713-2.8260991-.3434394-4.0780781-1.021021-1.2427318-.6643324-2.2809275-1.6547711-3.003003-2.8648649h-.0960961v3.2522523h-6.6066066v-34.5765766h6.7987988v12.8678679zm.966967 3.6666666c-.938939 1.3773774-1.4084084 3.2792793-1.4084084 5.7057057 0 2.4264265.4694694 4.3283284 1.4084084 5.7057057.9389389 1.3753754 2.1851851 2.0630631 3.7387387 2.0630631 1.6176176 0 2.9129129-.7007007 3.8858859-2.1021021s1.4584584-3.2872873 1.4564626-5.6576577c0-2.3623623-.4854916-4.2482482-1.4564626-5.6576576s-2.2662663-2.1101101-3.8858859-2.1021021c-1.5495495-.014014-2.7957958.6676677-3.7387387 2.045045z"/><path d="m125.63964 11.5795796c1.779779 1.6356356 2.669669 4.0720721 2.669669 7.3093093v8.9309309c0 2.7847848.226227 5.0350351.678679 6.7507508h-6.117117c-.242204-1.0839932-.3561-2.1927074-.339339-3.3033033h-.096097c-1.813813 2.5905906-4.484484 3.8858859-8.012012 3.8858859-2.558558 0-4.598598-.7007007-6.12012-2.1021021-1.506117-1.3709528-2.339513-3.3305315-2.282282-5.3663664 0-2.1041041.736737-3.8058058 2.21021-5.1051051 1.473474-1.2992993 3.925926-2.2222222 7.357358-2.7687688 2.072072-.3223223 4.128128-.5485485 6.168168-.6786787v-.8738738c0-1.4894895-.356357-2.5905906-1.069069-3.3033033-.712713-.7127128-1.6997-1.0690691-2.960961-1.0690691-1.263264 0-2.242243.3313313-2.936937.993994-.725247.7301034-1.135001 1.715669-1.141141 2.7447447h-6.606607c.064873-2.3594396 1.122662-4.5818861 2.912913-6.1201201 1.813814-1.58558558 4.403403-2.37837837 7.768769-2.37837837 3.495495.002002 6.134134.81981982 7.915916 2.45345347zm-8.837838 12.2132132c-1.425426.2582583-2.445446.6466466-3.06006 1.1651652-.614615.5185185-.921922 1.2632632-.921922 2.2342342-.035451.8558345.311116 1.6831928.945946 2.2582583.63063.5665665 1.531531.8498706 2.702702.8498706.736071.0018407 1.467136-.1210189 2.162163-.3633842.646494-.2128976 1.235986-.5702899 1.723723-1.045045.529651-.5151394.914852-1.1602465 1.117117-1.8708709.223394-.9298275.324349-1.8848567.300301-2.8408408v-.9219219c-1.953954.1301301-3.610611.3083083-4.96997.5345345z"/><path d="m148.024024 9.8018018v5.8828829c-.704226-.1434657-1.419683-.2248589-2.138138-.2432433-2.072072 0-3.658659.6396397-4.75976 1.918919-1.101101 1.2792792-1.651652 3.1331331-1.651652 5.5615615v11.6546547h-6.795795v-24.6726727h6.264264v3.5015015h.096096c.689894-1.2120786 1.680772-2.2257118 2.876877-2.9429429 1.182476-.6474513 2.51402-.97360729 3.861862-.94594598.758407-.01043633 1.514526.08559495 2.246246.28528528z"/></g><g transform="translate(0 .600601)"><path d="m42.960961 33.9249249v-30.17417415c-.0780781-1.92492492-.1441442-4.85285285-4.4324325-3.1021021-7.1801802 2.62762763-14.3993994 5.15615615-21.5105105 7.95195195-5.3903904 2.1171171-11.29429428 4.4414414-14.33333332 15.7837838-.79579579 2.972973-1.88888888 6.5705706-2.68468468 9.5435435h6.97897898c.64264264-2.4024024 1.44744745-5.4324324 2.1021021-7.8348348 2.17717722-8.1081081 6.45045042-9.8018018 10.35135132-11.3363363 5.5975976-2.2012012 11.2732733-4.2042042 16.921922-6.27627632v25.45045042z" fill-rule="nonzero"/><path d="m16.8288288 17.7207207c-.7130098.3884565-1.3807526.8547687-1.990991 1.3903904-2.1021021 1.8768769-3.2492492 4.5555556-3.9669669 7.2282282l-1.98798802 7.3453454h7.94594592z"/><path d="m25.4714715 14.2102102c-1.8018018.6686687-3.5915916 1.3523524-5.3693694 2.0510511-.4774775.1861861-.9489489.3723723-1.4084084.5675675v16.8558559h6.7777778z"/><path d="m34.4774775 33.6846847v-22.7717718c-2.3813814.8648649-4.7657658 1.7297297-7.1441442 2.6066066v20.1651652z"/></g></g></svg>