<svg height="39" viewBox="0 0 200 39" width="200" xmlns="http://www.w3.org/2000/svg"><g fill="#fff"><path d="m54.9093445 31.3026499h4.3793584v-9.6485355h7.9358438v-3.902371h-7.9358438v-6.1227336h10.0251046v-3.89958163h-14.404463zm23.0599721-16.3458856c-4.5495119 0-8.3152022 3.2496513-8.3152022 8.27894s3.7656903 8.3486751 8.3152022 8.3486751 8.3152022-3.3193864 8.3152022-8.3486751-3.7991632-8.27894-8.3152022-8.27894zm0 12.5523013c-2.292887 0-4.1841004-1.6736402-4.1841004-4.2761507 0-2.5327754 1.8800558-4.1841004 4.1841004-4.1841004s4.1841004 1.6401674 4.1841004 4.1841004c-.0111576 2.6025105-1.8912134 4.2789401-4.1841004 4.2789401zm30.6304044-18.30125528h-4.13947v6.08926078h-2.906555v3.3528592h2.906555v12.627615h4.13947v-12.627615h3.389121v-3.3528592h-3.389121zm25.112971 5.74895398c-1.266388 0-3.523013.376569-5.020921 3.0097629-.889818-1.9525802-2.566248-2.8396095-5.099023-2.9762901-1.503487 0-3.693166.7196653-4.582985 2.6694561v-2.3626221h-4.184101v15.9804742h4.184101v-8.5216178c0-2.7364017 1.640167-3.7294282 3.34728-3.7294282 1.640168 0 2.906555 1.2329149 2.942818 3.4560669v8.7949791h4.1841v-8.5216178c0-2.4295677 1.369595-3.7294282 3.249651-3.7294282 1.712692 0 3.012553 1.2663877 3.012553 3.5592748v8.6917712h4.13947v-9.1352859c-.013947-4.6889819-2.306834-7.1854951-6.172943-7.1854951zm22.100418 2.3263598c-1.16318-1.7796373-3.523012-2.3263598-4.959554-2.3263598-4.209205 0-8.145048 3.1799163-8.145048 8.3124128s3.935843 8.3152023 8.145048 8.3152023c1.573222 0 3.933055-.7196653 4.959554-2.3598327v2.0529986h4.184101v-15.9804742h-4.184101zm-4.379358 10.2984659c-2.292887 0-4.412831-1.7461646-4.412831-4.3124129 0-2.5662482 2.119944-4.3096234 4.412831-4.3096234 2.189679 0 4.379358 1.5397489 4.379358 4.3096234s-2.119944 4.3124129-4.379358 4.3124129zm18.747559-18.37377968h-4.13947v6.08926078h-2.906555v3.3528592h2.906555v12.627615h4.13947v-12.627615h3.389121v-3.3528592h-3.389121zm8.622036-2.59972106c-1.470014 0-2.702929 1.09344491-2.702929 2.49651325 0 1.40306839 1.232915 2.53277549 2.702929 2.53277549 1.386489 0 2.510461-1.1239714 2.510461-2.51046029 0-1.38648891-1.123972-2.51046025-2.510461-2.51046025zm2.052999 8.68898184h-4.13947v15.9776848h4.13947zm15.634588 10.7112971c-.79125 1.0289687-2.021488 1.6244449-3.319386 1.6066946-2.32636 0-4.479777-1.7796374-4.479777-4.3793585 0-2.599721 2.153417-4.2426778 4.479777-4.2426778 1.292991-.0300229 2.523969.5533986 3.319386 1.5732218l3.319387-2.5104603c-1.506276-1.986053-3.969317-3.1129707-6.638773-3.1129707-4.582985 0-8.622036 3.2496513-8.622036 8.27894s4.039051 8.3821479 8.622036 8.3821479c2.702929 0 5.168759-1.16318 6.672246-3.1464436zm-107.2552297-10.7112971v15.9804742h4.1841004v-12.3179916h3.7796374c1.0711297 0 1.9386332-.9456067 1.9386332-2.1143654v-1.5481172z"/><path d="m28.7112971 0h-28.7112971v38.2259414h9.57043236v-28.65550904h28.71129704v-9.57043236z"/><path d="m28.7112971 0h-28.7112971v38.2259414h9.57043236v-28.65550904h28.71129704v-9.57043236z"/><path d="m19.1966527 28.6555091h9.5146444v9.5704323h.334728c5.0987513-.0026181 9.2305882-4.1369523 9.2301255-9.2357043v-9.8493724h-19.0794979z"/></g></svg>