<svg height="40" viewBox="0 0 143 40" width="143" xmlns="http://www.w3.org/2000/svg"><g fill="#fff" fill-rule="evenodd"><path d="m78.3333333 0h-4.5180758v8.75416779c-3.2009742-1.75485643-7.1662596-1.35073297-9.9395097 1.01298572-2.7732623 2.36367419-3.7685086 6.18762489-2.4947203 9.58502249 1.2737849 3.3975089 4.5474565 5.6506043 8.2058931 5.647824h3.2842214v-4.4759161h-3.2842214c-1.7102036 0-3.252002-1.0205217-3.9064681-2.5858113-.6544661-1.5651783-.2927116-3.3668977.9165788-4.564853 1.2093017-1.1979552 3.0279758-1.5563845 4.6079948-.9079837 1.5800637.6482895 2.6102314 2.1757325 2.6102314 3.8699231h4.5180758c0-.0215948 0-.0401841 0-.0617789z" fill-rule="nonzero"/><path d="m2.76264496 10.5402628c-1.79155467 1.605807-2.79169025 3.8369713-2.76159453 6.1607032-.03707137 2.2362489.90848299 4.3883394 2.61473011 5.951139 1.53244649 1.4009817 3.65871714 2.3439294 6.4586221 2.3439294 1.48373596.0443677 2.95311296-.2842337 4.25572456-.9519076v-4.550222c-.950279.7829651-2.1702178 1.2177898-3.43523728 1.2243747-1.22141592.0181357-2.39650301-.4379552-3.24686471-1.2602142-.74110079-.7645703-1.14205233-1.7660596-1.12059405-2.7990056-.02284379-1.0946182.42066934-2.1526088 1.23233971-2.9396544.82109416-.7402382 1.9229208-1.1431419 3.06169829-1.1195871 1.28530984-.005581 2.53055434.4190099 3.51186414 1.1974194v-4.58910571c-1.3164667-.59195634-2.760767-.8910885-4.22062866-.87411451-2.27950156 0-4.48239911.55979285-6.35005968 2.20624542z" fill-rule="nonzero"/><path d="m15.8333333 0h5v25h-5z" fill-rule="nonzero"/><path d="m24.7372609 10.8541428c1.3364626-1.40110467 3.6064339-2.52080947 6.5117937-2.52080947 2.9059271 0 5.1851183 1.1197048 6.5118383 2.52381077 1.5042239 1.574738 2.2390195 3.8141044 2.2390195 5.8109908.0096979 2.1353354-.7858447 4.2010684-2.2390195 5.811088-1.3365072 1.4010075-3.6059112 2.5207771-6.5118383 2.5207771-2.9053598 0-5.1753311-1.1197696-6.5117937-2.5207771-2.9830145-3.3398757-2.9830145-8.2852044 0-11.6250801zm6.5438356 9.8736318c1.0171446.0186773 1.9924712-.3898465 2.6729142-1.1196616 1.4689678-1.7044637 1.4689678-4.1783858 0-5.8828711-.7027089-.7187383-1.6812941-1.1260961-2.705501-1.1260961-1.023662 0-2.0027922.4073578-2.7055122 1.1260961-1.4689678 1.7044853-1.4689678 4.1784074 0 5.8828711.6994613.741367 1.6997675 1.1504305 2.738099 1.1196616z"/><path d="m53.0930665 17.1025604c0 .783349-.108928 1.853216-.874371 2.5664057-.6183343.5120985-1.4095808.779524-2.2186955.7498467-.7976638.0348433-1.5781849-.2337913-2.178238-.7498467-.8370722-.7497697-.9086455-1.8531611-.9086455-2.5664057v-8.76922707h-5.2464498v9.59524547c0 1.7465426.2925065 3.3528544 1.78305 4.7762661 1.8670564 1.7831666 4.5494105 2.2951551 6.5502833 2.2951551 1.9292994 0 4.6676131-.5150662 6.5129174-2.2951551 1.636823-1.5697098 1.8204159-3.2796724 1.8204159-5.0963084v-9.27520317h-5.2402668z" fill-rule="nonzero"/><g fill-opacity=".604813"><path d="m82.0833557 40c-4.8303631-.0050567-8.7448681-3.8330687-8.7500224-8.5567715v-13.9432285h4.5199678v13.9401505c-.0012633 1.6734292 1.0285542 3.1827364 2.6091186 3.8239447 1.5805644.6413181 3.4005076.2881205 4.610885-.8947015 1.2104781-1.182822 1.5729395-2.9623315.9184518-4.5084644-.6545995-1.546122-2.1972184-2.5543129-3.9084008-2.5543129h-3.2917803v-4.4201485h3.2917803c4.8325544 0 8.7499776 3.8310021 8.7499776 8.5567606 0 4.7257914-3.9174232 8.5567715-8.7499776 8.5567715z" fill-rule="nonzero"/><path d="m97.8064024 32.0256704h12.1557786l.037819-.5285107c0-1.9959121-.365953-4.5358733-2.299749-6.5659903-2.00876-2.1202728-4.621427-2.4311694-6.461462-2.4311694-1.8394851 0-4.2861095.3637567-6.2576454 2.3223326-1.6427726 1.6663973-2.4811436 4.0602452-2.4811436 6.382589 0 2.6860524 1.0230321 4.8250061 2.4466244 6.2395026 1.8992093 1.8871538 4.0521283 2.5555758 6.4987416 2.5555758 1.81538.0025586 3.596813-.4921845 5.147486-1.4300998 1.505784-.9305161 2.618682-2.3753945 3.128839-4.0633282l-4.965564-.5067389c-.242734.5446322-.635621 1.0102265-1.132637 1.3430822-.659737.3307256-1.392901.4880165-2.131002.4569619-.801103 0-1.8959216-.1460798-2.7003233-1.0166168-.6339825-.7814093-.9813857-1.753877-.9857623-2.75759zm6.2428436-4.9959967c.515095.5243962.880039 1.1758135 1.057573 1.887109h-7.118506c.1380882-.6526842.4537103-1.2550083.9134469-1.7409732 1.4274201-1.3456495 3.6450011-1.4085995 5.1474861-.1461358z"/><path d="m116.152338 32.041231h12.159112l.021883-.544061c0-1.9959144-.365953-4.5358786-2.299749-6.5659978-2.00876-2.1202752-4.621426-2.4311722-6.461462-2.4311722-1.839485 0-4.286109.3637571-6.257645 2.3223353-1.642773 1.6663992-2.481144 4.0602498-2.481144 6.3825963 0 2.6860554 1.023032 4.8250115 2.446625 6.2396218 1.899209 1.8870438 4.052128 2.5554466 6.498741 2.5554466 1.824145 0 3.582561-.2642444 5.147486-1.1968917 1.505784-1.0350041 2.61049-2.5512985 3.12884-4.2965226l-4.965564-.5067395c-.242735.5446328-.635621 1.0102277-1.132638 1.3430838-.654261.3339772-1.383586.4966495-2.1184.4725457-.801102 0-1.896471-.1461921-2.700323-1.0166179-.633982-.7814102-.981935-1.7539127-.985762-2.7576268zm6.246177-4.9960473c.514983.5243857.879926 1.1758149 1.05746 1.8871112h-7.118427c.138077-.6526961.453699-1.255021.913436-1.7409863 1.42742-1.3456511 3.645001-1.4086012 5.147531-.1461249z"/><path d="m139.831654 27.8226795c-.847607-.5248726-1.818412-.8268358-2.819122-.8768886-.527365-.0264559-1.046604.1357123-1.461553.4564642-.190541.1868156-.304757.4357478-.321042.6997002.018884.3067497.211466.5771239.498392.6997111.492941.2188269 1.004504.3946833 1.52881.5255224l1.35452.4204244c.972121.2570001 1.873584.7238062 2.638713 1.3663821.917343.8408488 1.247543 1.8018159 1.247543 2.9789999.041782 1.5280846-.5458 3.0081198-1.629724 4.105124-1.568563 1.5405707-3.494863 1.8018808-5.173496 1.8018808-2.140343 0-4.458013-.4564534-6.528028-2.2432815l2.177025-3.3994135c.533956.4524465 1.121122.8405673 1.748962 1.1561319.665268.3235784 1.397936.4912154 2.140332.4894827.321053 0 1.140499 0 1.605257-.3513013.324804-.242034.521344-.6148854.535085-1.0150267-.006887-.3808651-.226643-.7271524-.571779-.9009512-.497252-.2500368-1.024112-.4386609-1.568563-.5615622l-1.284193-.3843955c-.959016-.2737853-1.838908-.7655421-2.568407-1.4354402-.761247-.7517349-1.173743-1.7781431-1.140494-2.837873-.028016-1.3587149.526768-2.6664349 1.528816-3.6036317 1.427908-1.2973087 3.363375-1.5765905 4.815749-1.5765905 1.851421-.0434483 3.679045.4169791 5.280475 1.3303439z" fill-rule="nonzero"/></g></g></svg>