<svg height="51" viewBox="0 0 195 51" width="195" xmlns="http://www.w3.org/2000/svg"><g fill="#fff"><path d="m191.499224 40.9997c-1.926384-.0001847-3.490382-1.5573739-3.499187-3.4839174-.008732-1.9265436 1.541026-3.4979078 3.467329-3.5156314 1.926302-.0177236 3.504706 1.5248589 3.531381 3.4512377.025312.9401662-.333646 1.8500345-.994035 2.5196303s-1.56515 1.0410646-2.505488 1.0286808m0-6.6836359c-1.289937-.0102343-2.458715.7585485-2.960246 1.9471498s-.236801 2.5623659.670499 3.4794296c.907301.9170636 2.278051 1.1963783 3.471796.7074399s1.974813-1.6496031 1.978266-2.9396965c.01654-.8462895-.310001-1.6632671-.905293-2.2649652-.595292-.6016982-1.408683-.9369193-2.255022-.9293576m.842751 5.3962142-.884888-1.9448285h-.726873v1.9448285h-.528826v-4.4248535h1.306264c.97127 0 1.37579.43195 1.37579 1.238959 0 .6489785-.305497 1.0535365-.874354 1.1778538l.933347 2.0059336zm-1.630723-2.4083846h.766903c.619422 0 .855392-.2107073.855392-.7754029s-.227542-.7585463-.924918-.7585463h-.697377z"/><path d="m149.469833 37.3622741c.817606.623494 2.447366.8798193 3.886352.8798193 1.86414 0 3.691943-.3290663 5.477957-1.8670181 1.816901-1.5760542 3.070563-3.9938253 3.070563-7.8387048 0-3.6993976-1.477141-6.7025603-4.507732-8.4604669-1.709704-1.0253012-3.924507-1.4288403-6.449999-1.4288403-.737662 0-1.477141.0363704-1.904113.2199548-.173379.1319534-.296563.3144768-.350662.5195783-.07631.6598644-.07631 5.677259-.07631 8.6440512 0 3.0395331 0 7.2879518.07631 7.7936747.039972.4399096.272535 1.2123494.777634 1.5379518m-7.749084-20.3622741c.659536 0 3.168676.1091114 4.335127.1091114 2.180281 0 3.691943-.1091114 7.770886-.1091114 3.419408 0 6.295563.8798193 8.357746 2.563253 2.487337 2.0506024 3.815492 4.9082831 3.815492 8.3877259 0 4.9429217-2.361972 7.7936747-4.740295 9.4112952-2.371056 1.6851657-5.450704 2.6377259-9.831253 2.6377259-2.332901 0-6.335534-.072741-9.676815-.1091114h-.045423c-.154436-.2944278.285254-1.4357681.559606-1.4652109.90845-.0987199 1.148281-.1316265 1.567986-.2961596.70314-.2771085.870295-.6200301.950239-1.8289157.114465-2.2705572.078127-4.9810241.078127-8.0569277 0-2.1978163.036338-6.4826054-.039972-7.8387048-.118099-1.1344127-.62138-1.4271085-1.635211-1.6470633-.720338-.1457863-1.448058-.2561979-2.180282-.3307982-.07631-.2199548.519634-1.2123494.715859-1.4271084"/><path d="m175.477365 18.8693331c-.152154.0378919-.341462.4204196-.341462.6116834-.037154 1.3731298-.076077 4.9602285-.076077 7.4394406.019997.096585.09442.1717772.189308.1912638.491847.0378919 1.702003.0775882 2.72462.0775882 1.438386 0 2.271695-.1930682 2.724619-.4222239 1.210156-.609879 1.769234-1.9451169 1.769234-3.3940305 0-3.3200512-2.269927-4.5795053-5.636778-4.5795053-.455256-.0059064-.910385.019412-1.36231.0757837m8.587859 15.2632133c0-3.357943-2.420311-5.265168-6.848703-5.265168-.187538 0-1.59231-.0396963-1.928464.0378919-.115.0378919-.228231.1136756-.228231.1912638 0 2.4034283-.037154 6.2575746.076077 7.7840764.076077.6477708.53077 1.5643936 1.098694 1.8314412.605078.3428314 1.965618.4186152 2.912158.4186152 2.611389 0 4.918469-1.4868055 4.918469-4.9981205m-15.415331-17.1325464c.341462 0 1.348156.1136757 3.920621.1136757 2.422081 0 4.387699-.0757838 6.735472-.0757838 2.913928 0 6.92478 1.0699947 6.92478 5.4943237 0 2.176077-1.514464 3.9299301-3.481851 4.7707691-.113231.0378919-.113231.1136757 0 .1515676 2.800696.7217502 5.259931 2.4810165 5.259931 5.8389595 0 3.2803548-2.006311 5.3427561-4.918469 6.6382978-1.779849.8029472-3.973699 1.0681904-6.206471 1.0681904-1.703772 0-6.264856-.1894594-8.800168-.1515676-.265385-.1136756.242385-1.3352379.468847-1.5265017.580925-.0192009 1.157318-.1113163 1.716156-.2742651.907617-.2273513 1.01554-.5268777 1.128771-1.9000075.076077-1.1836704.076077-5.4131269.076077-8.4336516 0-4.1211939.037154-6.9053455 0-8.2802797-.038923-1.0681904-.417539-1.4128261-1.135848-1.6022856-.567923-.11548-1.512694-.2291557-2.269926-.3428313-.189308-.1912638.39277-1.3370423.582078-1.4886099"/><path d="m30.349965 41c-.0971542-.2303914-.1366865-.4799582-.1153398-.7281388-.0074949-.1686127.03174-.3360835.1135923-.4848588.483487-.0676519.962542-.1625142 1.4347575-.2841103.6605826-.1599183.9104856-.5103776.9489322-1.3320857.1083496-1.9394352.1153398-5.578428.0768932-8.1371215v-.0748554c0-.2756039 0-.6498809-.3495146-.9152773-.615466-.3753642-1.2835791-.661887-1.9834955-.8506294-.3128156-.0901668-.4858253-.2500851-.4753399-.4372236s.2044661-.4100034.6133982-.48656c1.0817477-.1088806 3.9198065-.7672678 5.0330106-1.2691392.1149288.1453378.1686698.3278379.1502913.5103777-.0087379.1122831-.0192233.2313712-.0297087.3538618-.0314564.3623682-.0664078.7723716-.0664078 1.1806737.0139623.1011721.085588.1859138.1848802.2187352.0992921.0328214.209113.0080574.2834694-.0639206 2.1215538-1.6195985 4.0194182-2.1980265 4.9980592-2.1980265 1.6042721 0 2.8537869.7468526 3.8201948 2.2830894.0458796.0753626.1284789.1223222.2184467.1241919.0808469-.0004105.1561856-.0399515.2009709-.105478 1.9520392-1.4409663 3.8848551-2.3018033 5.1780592-2.3018033 3.0600006 0 4.8932048 2.2303504 4.8932048 5.9646138 0 1.0734944-.012233 2.4328002-.0209709 3.7036407-.0104854 1.1126233-.0174757 2.1571963-.0174757 2.8802313 0 .1701259.2394175.6600885.6029127.7570603.4473787.2126573 1.0939808.3215379 1.9100974.4576386h.0314564c.061165.2143586-.0681554 1.0462743-.1922331 1.2164002-.2027185 0-.4823302-.0153114-.8318448-.032324-.6361166-.0306226-1.506408-.0748554-2.5200005-.0748554-2.0324275 0-3.094952.039129-4.110292.1037768-.0768932-.2466825-.1031068-1.044573-.0104854-1.2095951.41881-.0716358.8330765-.1664936 1.2407769-.2841102.6466021-.2075536.8335924-.4933651.8737866-1.3303845.0157281-.5954406.1328155-5.8319156-.0751457-7.0755359-.192233-1.287853-1.1900973-2.7968697-3.3710686-2.7968697-.8091263 0-2.1180586.328343-3.3640782 1.2487241-.076524.0855509-.1198118.1945145-.1223302.3079278v.0255189c.1467962.6702961.1467962 1.4528752.1467962 2.6386526 0 .6805036 0 1.3899286-.0087379 2.1010548 0 1.4443689-.0174757 2.8070773.0087379 3.8363389 0 .7026199.4351457.8710446.7864079 1.005444.1904855.0408303.3495146.0765567.4928156.1105819.2935923.0697516.59767.1412045 1.0485439.2109561.0670004.2988652.0610147.6088668-.0174757.9050697-.018322.1117385-.0632039.2177653-.131068.3096292-1.1306798-.0374277-2.2910684-.0714529-3.9634959-.0714529-.5067962 0-1.3368934.0221163-2.067379.0408302-.5924273.0153113-1.1533983.0306227-1.4714566.0323239-.0850884-.19843-.1227357-.4130916-.1100971-.6277645-.0181119-.2017189.0218259-.4043632.1153398-.5852331l.4526215-.0697516c.3914563-.0680504.7304855-.1258932 1.0485438-.2041511.5539807-.1701259.7619419-.4644437.8021361-1.150051.1083496-1.6008847.1922331-6.2129977-.0401942-7.3681525-.3949515-1.8526709-1.4784468-2.7934671-3.2207773-2.7934671-1.0205827 0-2.3085441.4780537-3.3623307 1.2470228-.2045773.1939154-.3167018.4621726-.3093204.7400476v1.90541c0 2.3154134-.0157282 5.1990473.0419417 6.4477714.0349515.3827832.1747573.8387206.9157284 1.0071452.1607767.045934.442136.0901668.7671846.1429058.1869903.0306227.3914563.0629466.6029127.1003743.0671656.4079528.0330094.8256319-.0996117 1.2181014-.3267961 0-.7252428-.0204151-1.183107-.0408303-.6990292-.0289214-1.5728158-.0680503-2.5636898-.0680503-1.1691264 0-1.9834955.0391289-2.6353403.0680503-.4386408.0221164-.8178642.039129-1.1970876.0408303"/><path d="m69.7465562 27.4984998c-.607992-.0131862-1.2062014.1533344-1.7185575.4783865-1.2481801.7534171-1.8831897 2.2552506-1.8831897 4.4638293 0 4.1354595 2.0881398 7.0241138 5.0750364 7.0241138.803288.027297 1.587384-.247115 2.1956547-.7684187.9189158-.7434159 1.4060925-2.261918 1.4060925-4.3871541 0-4.073786-2.0394221-6.8107568-5.0750364-6.8107568m.5745324 13.5015002c-5.3975809 0-7.3210886-3.9287699-7.3210886-7.6041782 0-2.5686188 1.0583492-4.5771753 3.146489-5.9689966 1.4613268-.8989751 3.1392849-1.3917688 4.8583268-1.4268252 4.1191622 0 6.9951842 2.9403267 6.9951842 7.1491277 0 2.8603178-1.1490648 5.1189021-3.3228805 6.5307256-1.0432299.6350706-2.8558629 1.3201467-4.3560309 1.3201467"/><path d="m126.736477 27.5c-.608018-.0133868-1.206286.1531315-1.718558.4783333-1.2465.7533334-1.883189 2.255-1.883189 4.4633334 0 4.135 2.086459 7.0233333 5.075036 7.0233333.803511.0268337 1.587634-.2481524 2.195655-.77.918915-.7416667 1.406092-2.26 1.406092-4.385 0-4.0733333-2.039422-6.81-5.075036-6.81m.574532 13.5c-5.397581-.0016667-7.311009-3.925-7.311009-7.605 0-2.57 1.058349-4.5766667 3.146489-5.9683333 1.460464-.8994185 3.138037-1.3922149 4.856647-1.4266667 4.119162 0 6.996864 2.94 6.996864 7.1466667 0 2.8633333-1.150745 5.12-3.32456 6.53-1.04323.6366666-2.855863 1.3216666-4.356031 1.3216666"/><path d="m107.130544 25.514097c-1.646118 0-2.710276 1.4439315-2.710276 3.6799943s.91451 4.891272 3.491767 4.891272c.443953 0 1.245396-.2197288 1.642792-.7053477.600252-.6111782.997648-1.8760031.997648-3.2091471 0-2.9155599-1.278652-4.6567715-3.416943-4.6567715m-.212831 15.4234785c-.464477-.0046416-.922332.1224689-1.330197.3692919-1.303593.9232299-1.907169 1.8556921-1.907169 2.9229458 0 1.0063206.350839 1.8058377 1.107388 2.5167247.914511.8604502 2.148268 1.2795966 3.772771 1.2795966 3.192472 0 4.625759-1.9073929 4.625759-3.7963213 0-1.3165258-.595263-2.1972871-1.817382-2.6958312-.942776-.3840637-2.517397-.5945601-4.444519-.5945601m.212831 9.0605781c-1.917146 0-3.298888-.4505362-4.479437-1.4587032-1.148958-.9841631-1.662746-2.4447128-1.662746-3.4528798.012015-.6503323.235224-1.2739448.628518-1.7559832.332549-.4228393 1.107389-1.2112776 2.896503-2.5850437.059401-.0286768.0961-.095789.091618-.1675444-.004482-.0717553-.049173-.1325983-.111571-.1518931-1.473193-.6259499-1.917146-1.6618138-2.051828-2.2157518 0-.020311-.008314-.0517008-.014965-.0867836-.041568-.2197287-.081474-.4246857.186228-.6388751.20618-.1624884.537067-.3803707.887906-.6111781.49866-.305604.976582-.6511934 1.429961-1.0340175.051974-.0573938.074468-.1399669.059859-.2197287-.010544-.0794824-.055183-.1483315-.119717-.184646-2.17986-.8124423-3.278935-2.6127406-3.278935-5.3547333-.013021-1.7399238.739187-3.3774795 2.015248-4.3871884.87793-.7699738 3.079405-1.6950501 4.504378-1.6950501h.0848c1.466542.0387757 2.292927.3803707 3.438559.851218.65065.2650769 1.340744.3903983 2.033538.3692919 1.213804 0 1.74422-.4283787 2.199813-.9232299.074128.2236503.113486.4596651.116392.6979618.028685.5684105-.110243 1.1317159-.395734 1.6045736-.247749.3822171-.823059.6610326-1.366777.6610326-.05487 0-.108078 0-.166274-.0092323-.280585-.0243774-.558745-.0756538-.831373-.1532562l-.136345.0517009c-.043232.0720119-.014965.1495632.019953.249272.007751.0192153.014415.0389493.019953.0590867.097206.4934482.163322.9938204.197866 1.4974789 0 2.8749379-1.019263 4.1268376-2.123326 5.0537604-1.069064.8906903-2.339082 1.4357833-3.66968 1.5750302-.028267 0-.166275.0147717-.425663.0406221-.166275.0166181-.382432.0369292-.414024.0369292h-.031592c-.239436.0757048-.866291.4062211-.866291 1.0192458 0 .5114693.28433 1.1466515 1.636142 1.2592856.272691.0221575.566997.0461614.874605.068319 1.785789.1384844 4.013868.3102052 5.063061.7053476 1.426408.5572945 2.370184 2.0675914 2.341146 3.7464669 0 2.5850436-1.649444 5.0039059-4.416253 6.4847667-1.303045.6930087-2.730392 1.0496613-4.175155 1.0432497"/><path d="m97.9469829 39.594117c-.7949912-.1056929-1.3751656-.2130634-2.0619027-.5318197-.1341647-.1383028-.2226667-.3138621-.2537206-.5032994-.0710418-1.1005481-.0710418-4.293144-.0710418-6.3868695 0-1.7028297-.2892415-3.1875629-1.0148824-4.2562353-.8694159-1.2062409-2.0974236-1.9158931-3.690789-1.9158931-1.4089951 0-3.291602.9562689-4.8460635 2.2698803-.0372124.035231-.2757098.2600381-.2689439-.0889162s.0592015-1.0586064.0913394-1.5098982c.0312985-.2441246-.0566667-.4884171-.2368058-.6576446-1.0148825.5032994-3.8650106 1.1743653-4.9187968 1.2767028-.7713106.1476345-.9641383.8824517-.143775 1.135779h.0118403c.6566021.1798024 1.2833623.453326 1.8606177.8119898.3264539.2482943.2892415.6039592.2892415.8874846.0355209 2.3772508.0355209 6.0312045-.0727332 8.0192372-.0355209.7801141-.2537206 1.0636394-.8322036 1.2062409l.0524356-.0184543c-.4404845.1096474-.8872973.1925659-1.3379533.2482944-.1809874.1761548-.1809874 1.2062409 0 1.4193043.3619747 0 2.1989119-.1056929 3.7212355-.1056929 2.0974236 0 3.1833478.1056929 3.7212355.1056929.2181997-.2482944.290933-1.2062409.1454665-1.4193043-.5003365-.0224417-.9972183-.0938088-1.4834198-.2130634-.578483-.1409239-.7239495-.4261269-.7577789-1.0636395-.0727332-1.6675987-.0727332-5.2158595-.0727332-7.6283413 0-.6710659.1792959-.9931775.3974956-1.1743653.722258-.6391902 1.9164363-1.0636394 2.9668396-1.0636394 1.0148824 0 1.6914707.3187563 2.1989119.7448831.5796974.510759.9424037 1.2206574 1.0148824 1.986355.143775 1.3421318.1082541 4.0448496.1082541 6.3851918 0 1.2783805-.1082541 1.5988145-.578483 1.7397383-.2181997.1056929-.7966827.2130634-1.4834198.2835253-.2165082.2130635-.1454665 1.206241 0 1.4193044.9404577 0 2.0297648-.1056929 3.6163643-.1056929 1.990861 0 3.2560811.1056929 3.7635223.1056929.2165083-.2482944.28755-1.1743653.143775-1.4193044"/><path d="m22.561496 20.3045445c-2.6975216-11.85268318-9.0665714-15.75015538-9.7524419-17.23834518-.7530434-1.05318047-1.5096222-2.92530561-1.5096222-2.92530561-.0141416-.02993991-.0335864-.0862974-.0565666-.14089371-.0777791 1.04789695-.1184364 1.45648871-1.1154234 2.51671386-1.54320859 1.20992472-9.46430559 7.82840664-10.10068027 21.29608394-.60102053 12.5553906 9.10722869 20.0403689 10.42947387 20.9949237l.1484874.1039091c0 .061641.417179 2.9939913.707083 6.0883694h1.027038c.2426238-2.190154.6049526-4.3654954 1.0853724-6.516334l.0795468-.0528351c.5866797-.4202612 1.1463704-.8767106 1.6757866-1.366669l.0601021-.0545963c5.0244408-4.6301281 7.8437519-11.1649976 7.7584679-17.9833207-.015572-1.5831541-.1616039-3.1623608-.4366237-4.7217004zm-11.3787328 17.4127012s0-17.6117135.592182-17.6117135c.4543008 0 1.0447151 22.7191104 1.0447151 22.7191104-.8184485-.0951033-1.6368971-3.7372056-1.6368971-5.1073969z"/></g></svg>