<svg height="32" viewBox="0 0 200 32" width="200" xmlns="http://www.w3.org/2000/svg"><g fill="#fff" fill-rule="evenodd"><path d="m22.9665072 22.9665072h-15.63548708c-1.0972765 0-2.14964327-.4357226-2.92536865-1.2117805l-3.19387104-3.193871c-.7759642-.775788-1.21178043-1.8281141-1.21178043-2.9253686v-8.30446675c0-1.09713893.43543646-2.14902465 1.21178043-2.92436298l3.19286541-3.1948766c.7759717-.77630449 1.82874932-1.21224848 2.92637428-1.21178077h15.63548708v4.59370397h-14.23766569c-2.28354357.00055514-4.13458268 1.85159421-4.13513781 4.13513774v5.50781839c-.00000007 2.2839363 1.8512016 4.1355881 4.13513781 4.1361434h14.23766569z"/><path d="m8.61244019 9.26190034h15.33613601c1.075078 0 2.1067584.42312292 2.8681898 1.17751296l3.1325209 3.1045301c.7608172.7536104 1.1885037 1.7757791 1.1885037 2.8416662v8.0706056c0 1.0651362-.4270723 2.0872762-1.1885037 2.8416662l-3.1325209 3.1045301c-.7607446.7535142-1.792474 1.1765359-2.8681898 1.1765359h-15.33613601v-4.4628232h13.96417861c2.2404499 0 4.0566935-1.7994478 4.0566935-4.0191792v-5.3520652c0-2.2197314-1.8162436-4.0191792-4.0566935-4.0191792h-13.96417861zm42.06119481 15.00669456c-3.6394843 0-6.4307419-3.0449216-6.4307419-8.5142495 0-5.4390351 2.8543814-8.35985362 6.4613175-8.35985362 2.9490673 0 5.1761555 1.61627094 5.8655863 4.66119252h3.8268832c-.9093779-5.0344788-4.5173003-7.89275721-9.5672081-7.89275721-6.5865789 0-10.6955469 4.50581941-10.6955469 11.59141831 0 7.0543288 3.8584452 11.7467914 10.508148 11.7467914 5.2373067 0 8.876791-2.8592556 9.8177309-7.8937344h-3.8268833c-.6904171 3.0771688-2.8859434 4.6611925-5.9592857 4.6611925m20.6701011-14.2640308c-2.3523496 0-4.1405299.9635086-5.1130317 2.7038826v-8.14194047h-3.7331837v22.53007417h3.7331837v-8.8875357c0-3.0146287 1.0662013-5.1888747 3.9205827-5.1888747 2.8543815 0 3.1995901 2.205516 3.1995901 4.4745494v9.601861h3.7321974v-10.5038067c0-3.97716-1.6619325-6.5882096-5.7403248-6.5882096m15.8647982 14.481944c-2.7281338 0-4.2657913-2.2064932-4.2657913-5.7488041 0-3.543288 1.5376575-5.7185112 4.2657913-5.7185112 2.446049 0 4.3594907 1.864477 4.3594907 5.7185112 0 3.853057-1.9134417 5.7488041-4.3594907 5.7488041zm4.2036537-11.8708944c-1.0040637-1.647541-2.760682-2.6110496-5.0193322-2.6110496-4.2342293 0-7.3391336 3.3566449-7.3391336 8.7331399 0 5.3755178 3.1049043 8.7634328 7.3391336 8.7634328 2.2586502 0 4.0152685-.9635086 5.0193322-2.6110496v2.2064932h3.7321974v-16.7197072h-3.7321974v2.2377633zm6.8617594 14.4809667h3.7331839v-16.71873h-3.7331839zm15.5047949-17.0920163c-2.353336 0-4.14053.9635086-5.113032 2.7038826v-2.3305963h-3.733183v16.7197072h3.733183v-8.8894901c0-3.0146287 1.066202-5.1888747 3.920583-5.1888747 2.854382 0 3.19959 2.205516 3.19959 4.4745494v9.601861h3.732198v-10.5028295c0-3.97716-1.661933-6.5882096-5.740325-6.5882096m16.247486 7.116869-2.383911-.4661193c-1.442972-.2794761-2.25865-.8696984-2.25865-1.98858s1.506095-1.8341841 3.136466-1.8341841c1.882866 0 3.294276.5911994 3.701622 2.1136602h3.513236c-.690417-3.3566449-3.700635-4.9416458-6.994911-4.9416458-3.669074 0-6.868664 1.8957471-6.868664 4.8488128 0 3.0449216 2.227089 4.3191763 5.080484 4.8781285l2.541721.4983665c1.661932.309769 2.916519.9312613 2.916519 2.2993262 0 1.3670877-1.442972 2.1752232-3.386989 2.1752232-2.196513 0-3.451099-.9947786-3.796308-2.7038825h-3.637511c.407346 3.1700017 3.168028 5.500598 7.308558 5.500598 3.826883 0 7.150748-1.9270171 7.150748-5.4077651 0-3.2628347-2.603859-4.3191762-6.02241-4.9719386m13.236282-11.15656912h-3.733184v4.41298642h-2.509173v2.6726125h2.509173v9.6644012c0 3.419185.721979 4.3826935 4.328915 4.3826935h2.760682v-2.8289627h-1.349272c-1.599795 0-2.007141-.4035791-2.007141-2.1126831v-9.1054489h3.386989v-2.6726125h-3.386989zm13.236282 18.52164412c-2.72912 0-4.265791-2.2064932-4.265791-5.7488041 0-3.543288 1.536671-5.7185112 4.265791-5.7185112 2.446049 0 4.35949 1.864477 4.35949 5.7185112 0 3.853057-1.913441 5.7488041-4.35949 5.7488041zm4.202667-11.8708944c-1.003077-1.647541-2.759696-2.6110496-5.018346-2.6110496-4.234229 0-7.34012 3.3566449-7.34012 8.7331399 0 5.3755178 3.105891 8.7634328 7.34012 8.7634328 2.25865 0 4.014282-.9635086 5.018346-2.6110496v2.2064932h3.733184v-16.7197072h-3.733184v2.2377633zm14.208784 11.8083543c-2.196513 0-4.328915-1.7091039-4.328915-5.6872412 0-3.94589 2.10084-5.6549939 4.422614-5.6549939 2.038703 0 3.606936 1.2429847 3.920583 3.0136515h3.639484c-.628279-3.728954-3.890007-6.0908203-7.560067-6.0908203-5.018346 0-8.28106 3.7914941-8.28106 8.76441 0 4.9719386 3.231152 8.7321627 8.124237 8.7321627 3.606936 0 7.088611-2.2064932 7.841165-6.1220904h-3.637511c-.471457 2.2377633-2.321774 3.0449216-4.14053 3.0449216m24.370736-14.0461176h-4.485738l-6.24137 6.7132898v-12.52463397h-3.733184v22.53007417h3.733184v-5.3452249l1.787193-1.895747 5.301417 7.2409719h4.359491l-7.18231-9.8500671zm-99.065974-6.54912201c-.8871936-.01763543-1.7147192.44120992-2.1635341 1.19963386-.448815.75842394-.448815 1.69796147 0 2.45638541.4488149.75842394 1.2763405 1.21726929 2.1635341 1.19963386 1.353639 0 2.450981-1.08719373 2.450981-2.42831516s-1.097342-2.42831516-2.450981-2.42831516"/></g></svg>