<svg height="44" viewBox="0 0 200 44" width="200" xmlns="http://www.w3.org/2000/svg" xmlns:xlink="http://www.w3.org/1999/xlink"><mask id="a" fill="#fff"><path d="m43.0291387 17.6149733h-43.0291387v-17.35026742h43.0291387z" fill="#fff" fill-rule="evenodd"/></mask><mask id="b" fill="#fff"><path d="m43.0291387 17.6149733h-43.0291387v-17.35026742h43.0291387z" fill="#fff" fill-rule="evenodd"/></mask><g fill="#fff" fill-rule="nonzero"><path d="m74.3668626 19.421738-3.6443081-.8062776c-1.823546-.4031388-2.8274708-1.5500971-2.8274708-3.2307885 0-2.1360679 1.8597386-3.7474875 4.3263979-3.7474875 3.4132328 0 4.4210552 2.5607831 4.6493465 3.3466199.072385.2611885.2505635.482631.489991.6047082.2338593.1220773.495559.1402469.7461226.0511021l1.9209875-.691014c.4787286-.1733795.7422665-.6969269.6013526-1.1946535-.4955591-1.7772176-2.3163211-5.91080985-8.4913214-5.91080985-4.5713934 0-8.4300726 3.56579115-8.4300726 7.78739255 0 3.6282492 2.3346958 6.3082706 6.2473854 7.1770063l3.4744816.7722096c2.0913708.4485629 3.3408478 1.7488275 3.3408478 3.4749429 0 2.2030684-1.7762174 3.5714691-4.6382103 3.5714691-3.3631201 0-4.9834313-2.2484925-5.3787649-4.3550347-.0505726-.2747468-.2143044-.5141661-.4496527-.6575114-.2353484-.1433453-.5196944-.1768402-.7808929-.0919861l-2.1103022.6870394c-.4592412.142669-.7398326.6146631-.6514653 1.0958562.6570334 3.491977 3.470584 7.2167524 9.4100546 7.2167524 5.0190669 0 8.8042475-3.3329926 8.8042475-7.7504855 0-3.7304534-2.4143194-6.4104748-6.6260148-7.3587027m21.5774222 3.4068068c.0111361.0738142-.0222724.1305943-.0445447.1533064-.03734.047118-.0937166.0742949-.1531222.0738204h-7.7396306c-.062431 0-.1213849-.0293172-.1598039-.0794985-.0357583-.0420903-.0501765-.0988012-.0389766-.1533063.3535731-1.6454876 1.7372409-3.3046026 4.0312897-3.3046026 2.2534018 0 3.7862941 1.2321285 4.1008906 3.300628zm-4.134856-6.9953099c-4.0758343 0-8.2908705 3.4749429-8.2908705 9.2949045 0 2.8049376.9020289 5.2010584 2.6114293 6.9214959 1.5835619 1.5955211 3.7473176 2.4756129 6.0914791 2.4756129 3.4911859 0 6.3197704-1.8601165 7.5670202-4.9739379.1002255-.2555105.0946574-.5394111-.0133634-.7892436-.1076746-.2450418-.3103681-.4334327-.559592-.5201058l-1.7038323-.6018692c-.4728857-.1656298-.991142.0675777-1.1898986.5354364-.7349866 1.7658615-2.1158703 2.6573093-4.1036747 2.6573093-2.4054104 0-4.2373086-1.6523013-4.5546892-4.1125836-.0081062-.0557988.0093386-.1123058.0473287-.1533063.0222723-.02839.0723851-.0738141.1503382-.0738141h11.2942927c.5066952 0 .9298697-.4031388.9577097-.9175667.011136-.1646623.016704-.3463587.016704-.5257838 0-5.6893674-3.1905094-9.2227938-8.3242788-9.2227938zm19.2321472 13.8089235c-2.711655 0-4.398783-1.9191678-4.398783-5.0080059 0-3.0434141 1.726105-5.0102773 4.398783-5.0102773 2.589157 0 4.328625 2.0100161 4.328625 5.008006 0 2.9945832-1.740582 5.008006-4.329182 5.008006zm7.227367-13.2865465h-2.043485c-.528968 0-.960494.4389103-.960494 1.005008-.000371.0818318-.048566.1555515-.122498.1873744-.038976.017034-.116929.0397461-.187087-.0283901-1.052367-.9811603-2.533476-1.4791219-4.398783-1.4791219-4.623176 0-7.979058 3.6168932-7.979058 8.5965092 0 4.9580395 3.355882 8.556763 7.979058 8.556763 1.709401 0 3.257327-.5723435 4.359806-1.6114196.072385-.0681361.150339-.0511021.189315-.034068.027841.011356.122498.0624581.122498.1873743v.7154295c0 3.4635869-1.486677 5.0789811-4.671619 5.0789811-2.021213 0-3.608115-1.2775526-4.036858-3.2523649-.05568-.2555105-.206019-.4712749-.423174-.6092506s-.478855-.1816964-.729418-.1249163l-2.006736.471275c-.512698.1244047-.833184.6446793-.720509 1.1696703.718282 3.5885032 3.900996 6.001658 7.912241 6.001658 2.990058 0 5.267403-.9283549 6.770784-2.7595135 1.241682-1.5137578 1.898716-3.6151898 1.898716-6.0771755v-14.9996026c0-.5394111-.428743-.9766179-.95771-.9766179zm24.293532-.4905802c-2.260641 0-4.099777.8698714-5.319744 2.5210371-.041934.0621625-.112664.0974723-.18653.0931194-.054785.0006689-.105746-.0285624-.133634-.0766532-1.022856-1.6125552-2.788495-2.5380711-4.84423-2.5380711-1.635345 0-3.207213.5859708-4.314148 1.6097163-.054754.0583714-.140029.0743901-.211587.039746-.069953-.0293024-.114458-.1001001-.111361-.1771539 0-.5394111-.43097-.976618-.959937-.976618h-1.941033c-.528967 0-.957709.4372069-.957709.976618v15.6883453c0 .5394111.430969.9777536.959937.9777536h2.043485c.528967 0 .957709-.4406137.957709-.9800248v-9.5634745c0-2.32401 1.39202-3.886031 3.468914-3.886031 2.717223 0 3.123693 2.172975 3.123693 3.4675616v9.9989779c0 .5394111.428742.976618.957709.976618h2.078565c.528967 0 .957709-.4394781.957709-.9788892v-9.6123054c0-2.2689333 1.414292-3.8530985 3.435505-3.8530985 2.718894 0 3.123693 2.1746784 3.123693 3.469265v9.9989779c0 .5394111.428742.976618.95771.976618h2.043485c.528967 0 .95771-.4394781.95771-.9788892v-10.3510146c0-4.7013934-3.056876-6.803961-6.085911-6.803961m13.814405 7.1860911c-.062129-.0002107-.120847-.0290019-.159804-.0783565-.034286-.0419491-.047828-.0976077-.036749-.1510351.35413-1.6466233 1.737241-3.3046026 4.033517-3.3046026 2.252845 0 3.786294 1.2321284 4.100334 3.2989246.011136.0738141-.023943.1305942-.044545.1533063-.040052.0426787-.0952.0672184-.153122.0681361h-7.739631zm3.802999-7.2224304c-4.075835 0-8.290871 3.4772142-8.290871 9.2949046 0 2.8083444.902029 5.2027617 2.609202 6.9249026 1.581335 1.5955212 3.74175 2.4699349 6.091479 2.4699349 3.485618 0 6.314202-1.8623877 7.56702-4.9796159.100226-.2555105.094658-.5394111-.016704-.7892436-.111361-.2498325-.311812-.4315289-.562376-.522377l-1.703832-.6007336c-.473287-.1663658-.996687.0681361-1.190456.5348686-.734986 1.7613191-2.11587 2.6573093-4.103674 2.6573093-2.405411 0-4.237309-1.6557081-4.554689-4.1165582-.008593-.0563837.007714-.1137554.044544-.1567131.022272-.0283901.072385-.0709751.150338-.0709751h11.297634c.506695 0 .928199-.4031388.95771-.9181345.009465-.1646623.016704-.3463587.016704-.528055 0-5.6893674-3.19051-9.2267684-8.324279-9.2267684zm20.473828.0357715c-1.728888 0-3.24452.6007336-4.382078 1.7374715-.053395.0548335-.134323.0706172-.203792.039746-.071621-.0318709-.117647-.1042852-.11693-.1839675v-.1249163c0-.5394111-.430969-.9766179-.959937-.9766179h-2.004508c-.528968 0-.959937.4372068-.959937.9766179v15.6855063c0 .5394111.428742.9783214.957709.9783214h2.076894c.528968 0 .960494-.4400459.960494-.979457v-9.1569289c0-2.0486264.910381-4.2380676 3.468913-4.2380676 2.299617 0 3.466687 1.29629 3.466687 3.8525307v9.539059c0 .5394111.428742.976618.95771.976618h2.076893c.528968 0 .958824-.4428849.958824-.982296v-10.0949363c0-4.3493567-2.415433-7.0520901-6.297499-7.0520901m15.974821 4.2516949h2.422115c.528967 0 .957709-.4400459.957709-.9788892v-1.8022008c0-.5394111-.428742-.9766179-.957709-.9766179h-2.422115c-.107631 0-.194883-.0889747-.194883-.1987304v-4.1528975c0-.5394111-.432083-.9777536-.960494-.9777536h-1.804057c-.528968 0-.95771.4383425-.95771.9777536v2.1462883c0 1.005008-.377516 2.2047718-2.164869 2.2047718h-.307915c-.528968 0-.95771.4372068-.95771.9766179v1.7999296c0 .5394111.430413.976618.95771.976618h2.010077c.108577 0 .194882.0851701.194882.1987303v8.6703234c0 3.2023983 1.912636 5.1897023 4.989 5.1897023.857484 0 1.52454-.1249162 1.845818-.1987304.43431-.1022042.739441-.493987.739441-.9539059v-1.6687675c-.000358-.2776299-.116239-.5420621-.318826-.7275355s-.472845-.274561-.743564-.2451079c-.217155.0227121-.427628.0357715-.592443.0357715-1.397588 0-1.920988-.522377-1.920988-1.9248458v-8.1763364c0-.1090178.08909-.1975947.194883-.1975947"/><path d="m28.3537354 4.54385027h-26.16957059c-1.20675106 0-2.18416481-.95721925-2.18416481-2.13903744 0-1.18181818.97741375-2.13903743 2.18416481-2.13903743h26.16957059c1.2067511 0 2.1841648.95721925 2.1841648 2.13903743 0 1.18181819-.9774137 2.13903744-2.1841648 2.13903744" fill-opacity=".723011" mask="url(#a)" transform="translate(0 25.490196)"/><path d="m22.742616 17.6470588c-2.1317448 0-4.2372797-.3101604-6.2576321-.9235294-1.1520681-.3496297-1.7966928-1.5476029-1.4399107-2.6759358.357111-1.1336899 1.5835195-1.7647059 2.7329362-1.4117647 1.6009928.486631 3.2707868.7326203 4.9646066.7326203 7.4114173 0 13.8465128-4.65775401 16.0137503-11.59358289.1693881-.54240695.5520742-.9965799 1.0637041-1.26240702s1.1102008-.32148505 1.6637717-.15470528c1.1532391.34224599 1.801936 1.54010695 1.4491934 2.6684492-2.7323902 8.74385029-10.8465624 14.62085559-20.1904195 14.62085559" mask="url(#b)" transform="translate(0 25.490196)"/><path d="m46.6354198 17.6470588h-28.5649572c-1.3172639 0-2.3841881-1.3161764-2.3841881-2.9411764s1.0669242-2.9411765 2.3841881-2.9411765h28.5649572c1.3172639 0 2.384188 1.3161765 2.384188 2.9411765s-1.0669241 2.9411764-2.384188 2.9411764" fill-opacity=".648902"/><path d="m4.24877438 17.6389188c-.72557608.0000947-1.40817897-.3264215-1.83961664-.879962-.43143767-.5535406-.56054889-1.2684649-.34795509-1.926723 2.86243045-8.87264095 11.36107515-14.8322338 21.14652665-14.8322338 2.2344687 0 4.4397698.31474812 6.5541365.93773233.5795945.17037747 1.0641114.55226193 1.3469473 1.0616311.2828358.50936916.3408184 1.10449151.1611903 1.65442811-.1790212.55028138-.5814329 1.01036286-1.1184452 1.27873033s-1.1644904.32296487-1.7439852.15174561c-1.6757085-.48840226-3.4257659-.73803008-5.1998437-.73803008-7.7608754 0-14.50202775 4.7266485-16.77195511 11.7650677-.29451691.9118172-1.18135304 1.5347336-2.1864279 1.5357537"/><path d="m39.2156863 9.97681624c0 1.17839836-1.075883 2.13367896-2.4030519 2.13367896s-2.4030519-.9552806-2.4030519-2.13367896 1.075883-2.13367899 2.4030519-2.13367899 2.4030519.95528063 2.4030519 2.13367899m-28.5272296 27.10519106c0 1.1783984-1.07588298 2.133679-2.40305188 2.133679-1.32716891 0-2.40305188-.9552806-2.40305188-2.133679s1.07588297-2.133679 2.40305188-2.133679c1.3271689 0 2.40305188.9552806 2.40305188 2.133679" fill-opacity=".648902"/></g></svg>