<svg height="40" viewBox="0 0 173 40" width="173" xmlns="http://www.w3.org/2000/svg"><g fill="#fff" fill-rule="evenodd"><path d="m48.6155054 1.22711435c1.6353378-1.63661014 4.2874301-1.63592352 5.9227678.00068662l2.9617268 2.96403143-34.5541663 34.5810532c-1.6353376 1.6366102-4.2874299 1.6359235-5.9227677-.0006865l-2.9617268-2.9640315zm-14.8093205 10.86880185-5.9234536 5.9280629-7.8993106-7.9054571-9.8737951 9.881478 7.8993105 7.905457-3.9475969 7.9027106-12.83483595-12.8448228c-1.63533767-1.6366102-1.63533767-4.2900794 0-5.9266896l15.79656275-15.80885423c1.6353378-1.63661014 4.2874301-1.63729676 5.9227677-.00068662z"/><path d="m60.7260793 19.9857926-7.8974575-7.9109372 3.9466709-7.90818873 12.8318251 12.85372683c1.634954 1.6377447 1.634954 4.2930533 0 5.930798l-15.7935431 15.8205c-1.6349541 1.6377447-4.2857385 1.6377447-5.9206924 0-1.6349542-1.6377446-1.6349542-4.2930533 0-5.9307981z" fill-opacity=".734156" opacity=".56"/><path d="m90.6186755 12.6923077v14.2307692h7.9125745l1.677083 4.7435898h-9.5896575c-2.6428716 0-4.7853422-2.1237777-4.7853422-4.7435898v-14.2307692c0-2.6198123 2.1424706-4.74358975 4.7853422-4.74358975h7.9125745v4.74358975h1.677083v-9.48717949c0-1.30990613 1.072651-2.37179488 2.395834-2.37179488h2.395833v28.46153847c0 1.3099059-1.072651 2.3717949-2.395833 2.3717949h-2.395834v-18.974359zm24.1666845 19.8076923c-2.642868 0-4.78536-2.1639665-4.78536-4.8333364v-4.8333563c0-2.6693714 2.142468-4.8333246 4.785337-4.8333246h7.912565v4.8333246h1.677082v-9.6666493h-13.17865l.000004-2.4166623c0-1.33468438 1.071232-2.41666237 2.392665-2.41666237h10.785981c2.646361 0 4.791683 2.16395317 4.791683 4.83332467v16.9166797c0 1.3346858-1.07265 2.4166623-2.395831 2.4166623h-2.395852v-9.6666927h-9.589647v4.8333247h7.912565l1.677082 4.833368c-5.907145 0-9.103687 0-9.589624 0zm19.381307 0v-21.75c0-1.33468814 1.119288-2.41666667 2.5-2.41666667h2.5v21.74999997c0 1.3346881-1.119289 2.4166667-2.5 2.4166667zm5-29.1503268c0 .69717125-.239649 1.28540067-.718955 1.76470588-.479305.47930524-1.067534.71895425-1.764706.71895425-.697171 0-1.290847-.23964901-1.781045-.71895425-.490199-.47930521-.735294-1.06753463-.735294-1.76470588 0-.71895783.245095-1.31808038.735294-1.79738562.490198-.47930523 1.083874-.71895425 1.781045-.71895425.697172 0 1.285401.23964902 1.764706.71895425.479306.47930524.718955 1.07842779.718955 1.79738562zm4.166666 28.3169935v-28.46153849c0-1.30990613 1.119289-2.37179488 2.5-2.37179488h2.5v28.46153847c0 1.3099061-1.119288 2.3717949-2.5 2.3717949zm16.564208.3941379-6.460495-20.0724211c-.386351-1.2526695.341513-2.57862496 1.605208-2.96160445l2.276042-.69344572 5.270833 17.04706517 4.74375-15.368087c.386351-1.25266943 1.707138-1.95769246 2.970833-1.57471297l2.196288.69344571-8.137954 26.67806346c-.615068 1.9942453-2.472321 3.3564177-4.576042 3.3566983l-3.955965.0008607c-1.321436 0-2.392815-1.0615696-2.392993-2.3714757l.000322-2.3721141h3.976761c1.317686 0 2.478122-1.056094 2.483412-2.3622723z"/></g></svg>