<svg height="82" viewBox="0 0 148 82" width="148" xmlns="http://www.w3.org/2000/svg"><g fill="none"><path d="m146.534719 9.23544765c.135364-.14754751.262579-.30236921.381077-.4637751.030545-.04115641.060015-.08272751.089384-.12467921.110809-.15666468.213356-.31901214.307223-.48637847.004994-.00898113.010924-.01740555.015844-.02642077.094911-.17628611.180122-.35762557.255251-.54320782.019348-.04694501.037895-.09389002.05596-.14139173.073331-.18879138.13609-.38152044.187987-.57729182l.001136-.00533982c.048942-.19599494.087035-.39454036.114106-.59473145.007351-.05172813.013975-.10328584.019831-.15536617.131909-1.11844266-.08625-2.25027028-.624421-3.2395521-.962633-1.77237647-2.817495-2.87634449-4.834397-2.87731319h-.001835c-.103387 0-.206025.00315088-.307916.00897545-.094677.00540799-.18888.01317157-.282609.02329072l-.119026.0169227c-.031447.00409008-.062617.00870278-.093962.01334956l-98.4386968 13.98847067c-.0336291.0061351-.0652529.0166444-.0986775.0231601-.0839421.016366-.1670831.0395942-.2507469.0588403-.1751268.040185-.3498731.0806654-.5195182.1319618-.0470125.0142869-.0931957.0329479-.1400378.0481948-.2079948.0672647-.4130754.1393467-.612021.222682-.0168145.0070725-.0332144.0158093-.0499891.0230238-.2281401.0974612-.4500144.2046213-.665623.3214801l-.013037.0063112c-.0263522.0143892-.0503072.0315504-.0764152.0462179-.4635337.2611743-.8989558.5693646-1.2993835.9196995-.0977061.0849828-.1972471.1682613-.2900963.2575443-.0640714.0618568-.1230813.1280763-.1849373.1920065-.1070677.11029-.2131981.2211368-.3130515.337011-.0536361.0623737-.1035628.1273492-.155188.1913532-.1000636.1238385-.1975254.2491539-.2895055.3784459-.0464275.0653901-.0906338.1320299-.1350446.1987721-.0891739.1338326-.1740968.2700133-.2547688.408542-.0395937.068202-.0784262.1366086-.1159748.2060206-.078324.144857-.1508538.2921793-.2198388.4415467-.0310331.0671227-.0630546.1334956-.0921903.2015159-.0715754.1672558-.1353571.3373916-.1950941.5092601-.0181779.0524269-.0391961.1035642-.0562719.1564399-.1514645.4677291-.2584052.9487212-.3193968 1.4365661-.0022211.0179963-.0029482.0362653-.0050614.0542957-.0271135.2297034-.0431725.4610712-.0497563.6937512-.0008293.0308573-.0002783.0618908-.0007271.0928163-.0037113.2286278.0028649.4579714.0197287.6880307.0017345.0236126.0035958.0472234.005584.0708322.0204198.2495364.0529412.499071.0975641.7486036l.0011361.0087028.0010737.0046127c.1388234.8054506.4091222 1.582598.8000824 2.3003508 0 0 5.0022297 9.5515199 10.6093 20.2560611l-43.33390348-23.9378074c-1.58533347-.8400944-3.55003215-.3226373-4.51588847 1.1893827-.96585631 1.51202-.6094077 3.5122317.81930231 4.5975155l40.41892654 31.3416386-30.3908644 18.0345123c-.8650585.4013179-1.45020433 1.2337763-1.53490409 2.1836331-.08469977.9498568.34392249 1.8727164 1.12432489 2.4207657.7804023.5480494 1.7939495.6379749 2.6586494.235885.0334927-.0155689.0666503-.0318193.0994728-.0487515.0340835-.017682.067866-.0360495.1013474-.0551024l33.6969441-18.3084397 18.8099453 14.5856164c.050063.0378957.1033867.0679237.1539439.1047117.1768254.1285307.3561104.2516818.5400763.3674538.1041536.0658048.2091365.128383.3149204.1898307.164828.0952761.3312863.1859111.500795.2712063.1325471.0670545.2659974.1307708.4003509.1911486.1465592.0656344.2943756.1274666.4434494.1854964.1576875.0618227.3157896.1199302.4754653.1731524.1350446.0448772.2707823.0857098.4075652.1247133.1707585.0487117.3415851.0939979.5139342.1332115.1371237.0312721.274736.0579031.4130753.0832843.1686794.0307892.3371089.0590107.5066574.0808529.1520693.0198312.304417.0340499.4573896.0467745.1540121.0125486.3076039.0236089.4617921.0289714.1725592.0062488.3450162.0058227.5180299.0029824.1349424-.0024597.2694701-.0055841.4040943-.0135541.1885956-.0108501.3764299-.0290566.564696-.0508647.1216612-.0142016.2428395-.0290566.3639155-.04778.1919414-.0295736.3826672-.0662934.5734668-.1074839.1215248-.0262105.2423907-.0536368.3629044-.084426.1796316-.0460134.3577066-.097946.5355716-.1545141.1358796-.0430291.2707633-.0888891.404651-.13758.154565-.0566892.3080337-.1174723.460406-.1823493.1583805-.0670318.3144035-.1387559.4695575-.2142406.125132-.0612318.249321-.1242304.3727204-.1912168.1758881-.0951057.3480667-.1969032.5186377-.3032054.0612993-.0382423.1252002-.0689292.1859427-.1086995.0656336-.0429572.1274156-.0902147.1918051-.1345636.0803008-.0553694.1605959-.1100856.2395107-.1679886.2133004-.1564739.4201136-.3196396.618474-.4912695.0532215-.0461157.1040855-.0954352.1564378-.1428119.1790105-.1617816.3513747-.3294331.5170926-.5029547.0410138-.0430253.0831751-.0842556.1235357-.1281501.1982526-.2152119.3850985-.4392971.5626169-.6702445.0154625-.0201095.0331121-.0374924.0484724-.057761.0249946-.0330444.045939-.0684747.0704848-.1017975.1141382-.1548928.223516-.3128701.3281335-.4739321.0355378-.0546764.0723252-.1084553.1067553-.1637565.1313352-.211014.2561207-.4258737.371056-.6461131.0149457-.0286362.0276304-.0582836.0422977-.0870618.098259-.1928813.1899305-.3889513.2750143-.5882101.0292948-.0683043.0568059-.1370915.0845272-.2060547.0695493-.172874.1341073-.3477589.193674-.5246548.0214271-.0634871.0442745-.1262755.0643838-.1901773.0745804-.2366337.142151-.4757329.1988206-.7183029.0055499-.0237168.0091855-.0478823.0145252-.0716332.0492337-.2182625.0901453-.4386722.1245412-.6608487.0114067-.0735419.0206319-.1472882.0303401-.2211369.0239569-.1820274.0427596-.3650716.0564082-.5491327.0054761-.0731954.0120656-.1461067.0159057-.2195407.0130653-.2496708.0196946-.5003529.0135936-.752688-.0051637-.2197508-.0192799-.4380814-.0389007-.6552987-.0072143-.0800235-.0181778-.1593199-.0273577-.2390309-.0159511-.1384435-.0333564-.2764382-.0551017-.4135524-.0142526-.0900101-.0305445-.1793556-.0472909-.2688488-.024063-.1285307-.0506557-.2562964-.0797782-.3832971-.0201774-.0881355-.0402526-.1761347-.0628273-.2636112-.0352935-.1368529-.0750292-.2721436-.1161169-.4070139-.0224326-.0736101-.0426044-.1477712-.0667412-.2208245-.0669174-.2024513-.1400398-.4024107-.2193673-.5998781-.018513-.0458032-.0401504-.0903567-.0593906-.1358815-.0668491-.1583826-.1367431-.3153053-.2117041-.4698421-.0304082-.0626179-.0630546-.1241282-.0948261-.1861212-.0719768-.1406306-.14715-.2795039-.2255194-.4166199-.0321066-.0557501-.0644178-.1112956-.0976322-.1664946-.0946197-.1576195-.1936986-.3124422-.2972368-.4644682-.0142015-.0208026-.0262443-.0427867-.0405992-.0634871l-8.8191307-14.2006605 73.23334-39.7896439c.012861-.0058965.024427-.0142528.037236-.0202459.20147-.0940708.397021-.2003295.585567-.3181854.009952-.0062487.020978-.0105035.030891-.0167806l.018859-.0102252-.000795-.0013179.007766-.0056807c.179088-.115526.351283-.24140384.515706-.37699161.030476-.02496652.059845-.05076241.089753-.07631404.147608-.12559336.288478-.25889596.422023-.39935069.011741-.01249178.024676-.02389855.036355-.03648691zm-89.3013898 17.98573255 55.6314228-10.5276056-45.4276658 26.9575916z" fill="#cdcdcd" fill-opacity=".652207"/><path d="m38.200208 30.178085h39.43662v39.43662h-39.43662z" fill="#000"/><g fill="#fff"><path d="m41.601899 62.220113h14.78862v2.464789h-14.78862z"/><g transform="translate(41.380282 35.070423)"><path d="m.05536338 5.49160563 1.14766197-1.08354929c.2228327.34804017.59772328.56955787 1.01008451.59684507.22368125-.00252012.43453831-.10484715.57492489-.27900588.14038658-.17415872.19561863-.4019326.15059624-.62105046v-4.06760563h1.77216901v4.07695774c.05067331.66498629-.17905137 1.32086394-.63357746 1.80890141-.47592841.44579719-1.11151971.68083578-1.76298592.65194366-.88784159.04465535-1.73795439-.36308923-2.25887324-1.08343662z"/><path d="m5.12381408.03723944h5.16963382v1.50591549h-3.40659156v.98253521h3.0851831v1.40490141h-3.0851831v1.01932394h3.45250706v1.51509859h-5.21554932z"/><path d="m12.6221803 1.59825352h-1.9190986v-1.56101408h5.6287887v1.56101408h-1.9282817v4.86664789h-1.7814084z"/><path d="m.22065916 7.96721127h3.29639436c.63692143-.05045223 1.26777253.15437272 1.75357747.56935211.27339533.27883492.42243608.65636417.41323943 1.04676056v.0183662c.01282559.64129086-.38680832 1.21860286-.99154929 1.43239436.75328928.1389903 1.29416906.8044002 1.27633802 1.5701972v.0183662c0 1.1018591-.89988732 1.772169-2.43329577 1.772169h-3.31470422zm3.7096338 1.98343662c0-.35814085-.28461972-.55092958-.80805634-.55092958h-1.16619718v1.12940849h1.12022535c.54174648 0 .85397183-.183662.85397183-.56011272v-.01836619zm-.61521127 1.82743661h-1.35904225v1.184507h1.37735211c.55092958 0 .85397184-.2112112.85397184-.5876619v-.0185352c.00005633-.3489014-.27543663-.5783099-.8722817-.5783099z"/><path d="m6.23491268 7.96721127h3.03938028c.76203244-.06096382 1.51654754.18723167 2.09357744.68867605.3891072.39836202.5952068.94048545.5690141 1.49673238v.0183662c.0326663.8769584-.5001453 1.6762098-1.3221972 1.9833803l1.5334085 2.240507h-2.0474366l-1.29470427-1.9466478h-.78969014v1.9466478h-1.78135211zm2.96585915 3.08529573c.23058819.0430832.46851323-.016258.6518612-.1625816s.29398647-.3651588.30312467-.5995592v-.0183662c0-.51425352-.37645066-.77132394-.96416897-.77132394h-1.17532394v1.55183094z"/><path d="m14.0212789 7.92135211h1.7169577l2.7363944 6.47352109h-1.9098592l-.4591549-1.1569577h-2.488338l-.459324 1.1569577h-1.863831zm1.5609577 3.93002819-.716169-1.8180845-.7254084 1.8180281h1.4416338z"/><path d="m18.6856732 7.96721127h1.7813522v6.42766193h-1.7813522z"/><path d="m20.9077014 7.96721127h1.6619718l2.6445071 3.39752113v-3.39752113h1.7630422v6.42766193h-1.551831l-2.7549295-3.5260281v3.5260281h-1.7629859v-6.42766193z"/><path d="m27.0888845 13.4400563.9915493-1.184507c.5859897.488257 1.321839.7605411 2.084507.7713239.4866479 0 .743662-.1652957.743662-.4407887v-.0184789c0-.2754929-.2112056-.4132394-1.092676-.6244507-1.3681691-.312169-2.4241691-.6978591-2.4241691-2.01092955v-.01830986c0-1.19369014.9458029-2.05684507 2.4884508-2.05684507.9546856-.03653889 1.8914969.26597893 2.644507.85397183l-.8906479 1.25797183c-.5201636-.39186854-1.1488406-.61318267-1.7997746-.63357746-.4315493 0-.6427606.17464789-.6427606.4131831v.01819718c0 .2938592.2203944.4225352 1.1202253.6243944 1.4691268.3211267 2.3874367.7988732 2.3874367 2.0017464v.0183662c0 1.3130705-1.0376338 2.0935775-2.5986423 2.0935775-1.1002324.024683-2.1714705-.3540781-3.0116676-1.0648451z"/></g></g></g></svg>