<svg height="39" viewBox="0 0 156 39" width="156" xmlns="http://www.w3.org/2000/svg"><g fill="#fff" transform="translate(.709786)"><g transform="translate(49.685032 6.388076)"><path d="m27.7497933 7.14222341c-1.5320664.04402093-2.9930264.66470978-4.1921746 1.59701889-.4288457.30626422-.9510425.8123808-1.2334381 1.2708154-.6142205.8421414-1.1352746 1.7418522-1.4293177 2.7470875-.8505978 2.8084862-.6994801 5.9884547.6612226 8.6104162.5298412.9325511 1.0973579 1.741515 1.9349907 2.4324563.679386.4231114 1.4688244.9802254 2.3107728 1.1990873 2.3022908.7307688 4.9699867.3552359 6.8942667-1.1325448.4814551-.2990556.9202875-.8745119 1.3086683-1.3530299-.0281076-.1256875.3685351-.641032.3992547-.2395528-.0014196 2.8550283.0014196 5.736034 0 8.6017212h2.5951557c0-7.7780733 0-15.5561473 0-23.33422057-.8650519 0-1.7301038 0-2.5951557 0v3.10531457c-.4647467-.68087095-.8753509-1.42732965-1.5304765-1.86318876-1.4324265-1.14919706-3.2807594-1.78573898-5.1237689-1.64138053zm.9094135 2.35116671c1.1914258-.00305208 2.5431568.33319492 3.3936652 1.08686008.6780658.5494114 1.1854919 1.1298426 1.5518055 1.9369831.9703416 2.0858919 1.0565735 4.5662716.2988484 6.7326867-.3401438 1.0477224-.9939988 1.9328897-1.8506539 2.6203666-1.2610487 1.0786556-3.0875557 1.2590045-4.6824665.9809216-1.0558638-.1812013-1.9519617-.7853003-2.6301482-1.5887974-1.262809-1.3865829-1.6230326-3.3928191-1.5999077-5.2299927.0635968-1.5945347.3698979-3.267319 1.3488634-4.5649352.659143-.8150219 1.5211925-1.519523 2.5773046-1.76910938.5129767-.16574855 1.0554024-.22019767 1.5926892-.2049834z"/><path d="m8.68617514.46579718c-1.9744406.07904924-3.98479425.59677118-5.56738533 1.81882708-.32481093.2156593-.68390098.60493301-.90862851.94325969-.96550439 1.2197065-1.45933812 2.80493443-1.30528542 4.36226919.05526395 1.1330047.47342525 2.23448993 1.23795794 3.07882036.2238474.3372513.65592973.7202292 1.00735906.9413503 2.04344389 1.588131 4.70079035 1.8831061 7.11241732 2.6052738 1.5059236.4584991 3.2493103.7696921 4.2349393 2.1094845.8347475 1.0193161.8112927 2.5513264.3548931 3.7485582-.3904683.9807066-1.2426177 1.6817496-2.1515394 2.1737202-1.9034166.8234407-4.10810611.7699349-6.07724958.2185091-1.48346659-.4540417-2.79934628-1.3354975-3.76238772-2.5579473-.24637388-.4015999-.46548061-.6603106-.85090373-.1962587-.58429882.4090093-1.16859835.8180193-1.75289788 1.2270286.46927655.7370093 1.02344424 1.4444738 1.68574217 1.951912 1.13293514.8664658 2.36160908 1.6328014 3.75512732 1.9923144 2.60739171.7768582 5.50164562.6959631 8.02288702-.3509339 1.0176574-.5314942 1.9896088-1.0684787 2.7094434-1.9600702.9311046-1.1005214 1.529355-2.6440856 1.558129-4.1482509.0762275-1.4440806-.3896925-2.9087691-1.3397044-4.0061319-.1811587-.2854185-.5081317-.5772577-.8219409-.759655-.4747078-.4215122-1.0116511-.6858508-1.5934487-1.0006715-2.5946106-1.2979093-5.5532641-1.5780349-8.20354322-2.71235559-.81175193-.40337787-1.62442162-.96219891-2.04631426-1.78230858-.63101766-1.40030307-.1393651-3.17264839 1.09639748-4.06084358 1.07944211-.86501499 2.56137698-1.11949392 3.92977588-1.12946783 2.37612142-.02428179 4.78534862 1.01191092 6.21950142 2.92786798.7097861-.53233964 1.4195723-1.06467927 2.1293585-1.5970189-.6225797-.86688102-1.4009277-1.53835223-2.252796-2.11253234-1.880494-1.23681164-4.1705837-1.84061404-6.41990386-1.72474918z"/><path d="m41.3791145 18.8536953c.0028392 1.5241849.3121924 3.1077874 1.2421259 4.3474404.4066506.6610487 1.2087942 1.1864693 1.9216325 1.5755975 1.8626421.8619317 4.0988022.7301918 5.9432029-.1147171.8400887-.4547202 1.6469097-1.0203992 2.1830751-1.7492311.245799-.2267667.5228498-.8706159.6654246-.9049774v2.9456127h2.5951557c0-5.8039805 0-11.6079617 0-17.41194217-.8650519 0-1.7301038 0-2.5951557 0-.0180286 3.55610187.0419483 7.11423367-.0443617 10.66897347-.209685 1.4313193-.8600905 2.8135484-2.0406352 3.6820158-1.4308722 1.090282-3.5044273 1.3552274-5.1903115.6876054-1.1807718-.530666-1.8535427-1.8264587-1.9377943-3.0992629-.203155-2.2265056-.059693-4.4674574-.1028409-6.7002226 0-1.7463699 0-3.49273919 0-5.23910917-.8798368 0-1.7596806 0-2.6395174 0z"/><path d="m66.5868157 7.14222341c-2.2525419.0731392-4.4843581.80555549-6.3215331 2.10717771.3770739.63584988.7541478 1.27170048 1.1312217 1.90755038 1.5293621-1.17370671 3.4971094-1.65368187 5.3988111-1.73010384 1.3851264-.01898678 3.0162364.24592601 3.8127229 1.47475754.4548097.8338142.3510177 2.030562-.4279301 2.6286938-.6524709.6265027-1.7605252.8841558-2.7060598 1.0646793-1.7941407.3296481-3.675074.4004372-5.3585875 1.159907-.7570437.354333-1.4593204.8753963-1.89454 1.5461528-.9303451 1.1533507-.9955744 2.7544856-.719716 4.1524471.1578493.7889323.5621577 1.4771751 1.0524283 2.1025435.2573614.3827139.7677828.6387359 1.1977642.9537752 1.6223866.9266103 3.6135285 1.001942 5.4167545.6531758 1.0626635-.2420591 2.0432899-.7871862 2.8075237-1.4794542.4007311-.2592806.4784385-.6934469.8254955-.948187.3326555.0904154.0737965.6245238.1552658.8872327v1.3308491h2.5064324c-.0185964-4.5172645.0429421-9.0365505-.0443616-13.5524798-.2027788-1.23911-.8616733-2.52010153-1.9438559-3.12334526-1.4167687-.92842374-3.2134221-1.23021275-4.8878361-1.13537183zm4.2808979 8.20690269c-.0721711 1.8175615.2944264 3.7808968-.6139012 5.4503884-.7474545 1.3554851-2.2310567 2.1558832-3.7599077 2.274431-1.3553438.1127992-2.9360873-.057443-3.8552746-1.1592973-.6536918-.7991113-.7790897-2.0127754-.4616165-2.9937702.2436909-.8510294 1.0054476-1.3775168 1.8148097-1.6440962 1.9109715-.6562314 3.9924691-.6606377 5.8777535-1.3953161.373525-.2073335.7168769-.40326.9981368-.6876054z"/><path d="m85.4286292 7.20876586c-1.3849703.10799681-2.7396894.74015793-3.7001295 1.64613681-.4208251.46384527-.8145151 1.04507213-1.1796504 1.61444343 0-.97595598 0-1.95191198 0-2.92786797-.8650519 0-1.7301038 0-2.5951558 0v17.41194217h2.5951558c.0239907-3.3944523-.0542987-6.7928212.0543696-10.1847183.2012953-1.6425347.8880064-3.3146078 2.2855966-4.2771105 1.2465123-.93805694 3.0322776-1.00994693 4.4695165-.4436809.3082459-.15728865.1841469-.68961125.3479585-.9907281.113218-.43129873.2264289-.86259746.3396469-1.29389619-.7844202-.45350226-1.7216077-.60793612-2.6173366-.55452045z"/><path d="m96.7733191 7.14222341c-1.5177286.02601366-2.9802927.56657758-4.2365362 1.39739153-.2525348.19215331-.5535977.41350155-.8265176.64907178-.6493905.62874279-1.1397108 1.40263968-1.6133724 2.21225378-1.2833715 2.5321543-1.4285086 5.5721763-.6205306 8.2750329.3526005 1.2387479 1.1010133 2.3881175 1.9016308 3.3095952.3269914.3355074.6850288.613273 1.0035241.83663 1.3227149.9545964 2.9299689 1.4691118 4.5601135 1.5189289 2.168993.120773 4.4397903-.3913179 6.1325883-1.804999.53202-.3600355.969937-.7877207 1.395844-1.3109488-.584097-.5323397-1.168187-1.0646793-1.752285-1.5970189-.900463 1.1560528-2.211913 1.9571083-3.662695 2.2107731-2.0091137.3891474-4.3412227-.038009-5.7314453-1.6235464-1.1682655-1.1234397-1.5484909-2.8432707-1.5853643-4.4245083.2462036-.4003648.8635117-.064413 1.2687428-.1774465h12.1506518c.292794-2.3584704-.247374-4.8617862-1.743412-6.73853251-.359067-.55559223-.939473-.95806797-1.494987-1.35746607-1.466078-1.04355106-3.3600853-1.48475911-5.1459499-1.37521071zm.9315944 2.2180818c1.732006.10379984 3.4074425 1.07516209 4.2108985 2.61612139.381326.8212772.605718 1.7311543.62452 2.6407325-3.5932927 0-7.1865852 0-10.7798777 0 .1685316-1.2755497.472604-2.6479894 1.4195723-3.5711117.1695253-.2918911.6412492-.5781329.916625-.8550723 1.0557643-.68797519 2.3619767-.91840017 3.6082619-.83066989z"/></g><path d="m31.4672771.63952742h-25.17315967c-3.46082441 0-6.29412145 2.83218838-6.29412145 6.29412148v25.1731597c0 3.4602701 2.83329704 6.2919038 6.29412145 6.2919038h25.17315967c3.4608244 0 6.2941219-2.8316337 6.2941219-6.2919038v-25.1731597c0-3.4619331-2.8332975-6.29412148-6.2941219-6.29412148m-.5720919 28.89452988c0 1.0998364-.900823 1.9978877-2.0017681 1.9978877h-20.02710249c-1.10039073 0-2.00121373-.8980513-2.00121373-1.9978877v-20.02654812c0-1.10039073.900823-2.00121373 2.00121373-2.00121373h20.02710249c1.1009451 0 2.0017681.900823 2.0017681 2.00121373zm-6.8639965-6.0102926c0 .631408-.5149932 1.1447382-1.1430751 1.1447382h-8.009289c-.629745 0-1.1430752-.5133302-1.1430752-1.1447382v-8.0087346c0-.6291907.5133302-1.1436302 1.1430752-1.1436302h8.009289c.6280819 0 1.1430751.5144395 1.1430751 1.1436302z"/></g></svg>