<svg height="44" viewBox="0 0 200 44" width="200" xmlns="http://www.w3.org/2000/svg" xmlns:xlink="http://www.w3.org/1999/xlink"><mask id="a" fill="#fff"><path d="m.02000524.07935412h26.21753316v28.34275648h-26.21753316z" fill="#fff" fill-rule="evenodd"/></mask><mask id="b" fill="#fff"><path d="m.31975041.25106576h121.02803159v43.40703514h-121.02803159z" fill="#fff" fill-rule="evenodd"/></mask><g fill="#fffffe" fill-rule="evenodd"><path d="m16.8034009 17.2065065-3.1988378-9.83891022h-.9715878l-3.19883779 9.83891022zm9.4341375 11.2156041h-5.830527l-1.9841864-6.1949559h-10.60811162l-1.98418634 6.1949559h-5.83052704l9.55583605-28.34275648h7.12619975z" mask="url(#a)" transform="translate(0 8.002096)"/><path d="m48.3436614 31.1201505v5.3040558h-19.4757674v-28.3427564h5.668818v23.0387006z"/><path d="m71.8671557 31.1201505v5.3040558h-19.4757675v-28.3427564h5.6684846v23.0387006z"/><path d="m155.710781 13.1424421h-4.453833v7.8550572h4.453833c2.307938 0 3.846675-1.7818 3.846675-4.1297482 0-2.3486151-1.579081-3.725309-3.846675-3.725309"/><g transform="translate(77.687013)"><path d="m102.883612 29.1362976h.971588l3.199171-9.8389102h-7.3689296z" mask="url(#b)"/><path d="m106.932673 36.4242063h-7.1261999l-9.5555026-28.3427564h5.830527l1.9838529 6.1949558h10.6087786l1.983853-6.1949558h5.830527zm-23.9692778 0-6.0329134-10.4057253h-3.3605468v10.4057253h-5.1420134v-28.3427564h10.0009526c4.6562195 0 8.7859678 3.1174832 8.7859678 8.70528 0 3.887018-2.1862393 6.8427921-5.1016695 8.2598299l6.8427922 11.3776465zm-18.5835338-23.200743h-13.2401343v6.3166543h10.8111648v4.9803044h-10.8111648v11.9037843h-5.425421v-28.3427564h18.6655553zm-24.2513516 23.200743h-5.3043892l-11.2152707-18.3014599h-.5264712v18.3014599h-5.3043892v-28.3427564h5.3447331l11.2156041 17.8153326h.4857939v-17.8153326h5.3043892zm-33.56479073 0h5.62814073v-28.3427564h-5.62814073zm-6.24396866 7.2538999h121.02803159v-43.42704044h-121.02803159z" mask="url(#b)"/></g></g></svg>