<svg height="256" viewBox="0 0 1544 256" width="1544" xmlns="http://www.w3.org/2000/svg"><g fill="#15003e" fill-rule="evenodd" transform="translate(4 3)"><path d="m241.394285 106.200737c-3.775229-5.065137-5.74907-11.2399631-5.609498-17.5483633v-38.2291609c.09673-7.2983231-.691839-14.5815507-2.348555-21.6912596-1.341674-5.92493-4.219747-11.3951977-8.346663-15.8642598-4.616764-4.6073738-10.367876-7.92367338-16.676431-9.61623386-4.223934-1.22254803-8.550002-2.06239699-12.9255-2.50931497-4.803527-.51377727-9.631982-.76116038-14.463044-.74214457h-181.024594s6.40361406 63.8286807 43.4229239 81.1244288c3.193359 18.8451239 11.8272555 46.0097212 34.9579881 56.8216692 3.3792159 20.377658 13.2634223 46.969661 40.922304 54.649175-.0269.330665-.0269.662957 0 .993621 0 0 3.379216 57.411106 62.515494 57.411106 5.068823 0 9.647661-.185251 13.719616-.505231 4.101035-.270912 8.164848-.947889 12.131385-2.020925 6.44766-1.602034 12.36457-4.8527 17.166417-9.430982 4.246197-4.367741 7.219218-9.805376 8.600104-15.729532 1.677048-7.17478 2.465776-14.527348 2.348555-21.893352v-38.431253c-.115386-6.221949 1.859057-12.303815 5.609498-17.278908 3.739666-4.951265 9.608237-7.421285 17.605715-7.410057v-24.688965c-8.008742 0-13.877313-2.470019-17.605715-7.410058zm-31.038097 34.945159c-2.692109 6.242412-4.038163 14.47768-4.038163 24.705805v37.420791c0 9.172754-1.99937 15.347802-5.998109 18.525145-1.456682 1.123537-3.089369 1.999813-4.832278 2.59352-3.243739 1.097408-6.618003 1.765533-10.036271 1.987242-3.379216 0-34.332834 3.974486-39.384761-31.627473h28.723335c-1.148934-22.903814-19.447388-24.234256-21.779047-24.318462h-10.543153c-22.894188 0-33.167004-17.076814-37.79653-32.503207h68.141888c0-13.472832-10.779698-24.891057-21.103203-24.318462h-44.707026c-22.5393694-.235774-32.7108092-17.1778608-37.3065428-32.4863662h99.8727248c0-13.472832-9.275947-24.3184618-22.759019-24.3184618h-75.9140841c-22.8941875 0-29.8891644-17.0768147-34.501794-32.5038536h138.9533561c4.878323-.0190015 9.748086.4094495 14.547525 1.2805653.692739.1178872 1.368582.2526156 2.010633.4041849 1.196537.2579158 2.371449.6069891 3.514384 1.0441445 1.762315.604416 3.3997 1.5231579 4.832279 2.7114075 2.173865 1.9517019 3.754462 4.4724188 4.561942 7.2753293 1.055519 3.7635084 1.53961 7.663359 1.436166 11.5697945v37.2018575c0 10.4077628 1.346055 18.6823271 4.038163 24.8236931 2.894008 6.337364 7.679217 11.630409 13.702721 15.156936-6.03897 3.586867-10.8053 8.961693-13.635136 15.37587z"/><g fill-rule="nonzero" transform="translate(338 44)"><path d="m110 25.2288314v24.9570006c-12.1615336-10.1895114-24.7433967-15.2842671-37.7455893-15.2842671-13.7292697-.2578164-26.9139735 5.3776009-36.2324032 15.4864845-9.7771931 10.0471907-15.1095361 23.6148847-14.7955985 37.646144-.3070285 13.8608056 5.0358016 27.2482856 14.7955985 37.0731946 9.456088 9.924121 22.6273314 15.424631 36.3164691 15.166307 6.4761131.180781 12.9137009-1.055611 18.864388-3.623062 3.1401474-1.351915 6.1509316-2.987644 8.9950514-4.886921 3.40617-2.287665 6.678885-4.768887 9.802084-7.431491v25.445693c-11.5286042 6.67054-24.6019767 10.191826-37.9137211 10.21198-19.1453645.325555-37.5875071-7.226442-51.0280017-20.895801-13.72480569-13.317268-21.34357923-31.730554-21.05010148-50.8745337-.11662009-17.4913563 6.15000361-34.4221864 17.62021278-47.6053521 14.4481261-17.0649038 33.138778-25.6029729 56.0719556-25.6142072 12.7980857.0715215 25.3394124 3.6055252 36.2996559 10.2288314z"/><path d="m148 86.9169254c0-19.681399 7.207775-36.5864955 21.623326-50.7152897 13.633785-13.8359594 32.32346-21.4922681 51.734312-21.1931912 40.018726.2302388 72.403521 32.652609 72.633493 72.7177675.310161 19.33727-7.526637 37.91159-21.589645 51.170513-13.826585 13.825097-32.667524 21.437149-52.205849 21.092031-18.030665 0-34.225706-6.243871-48.585121-18.731612-15.740344-13.825311-23.610516-31.938718-23.610516-54.3402186zm21.252833.2697622c0 15.4551244 5.186903 28.1620474 15.560711 38.1207684 10.373807 9.95872 22.285722 14.9437 35.735746 14.95494 13.91587.297203 27.331542-5.197394 37.049312-15.174122 20.066136-20.92652 20.147731-53.9513771.185246-74.9770259-20.331561-20.2755868-53.211324-20.2755868-73.542884 0-9.893975 9.7710138-15.317599 23.1993818-14.988131 37.1091598z"/><path d="m339 158v-140h29.352034c14.036465 0 25.127629 1.3899272 33.273492 4.1697817 8.855696 2.7863105 16.976187 7.5281198 23.764376 13.8767636 14.406732 13.1902407 21.610098 30.5108726 21.610098 51.9618956 0 21.4510231-7.500701 38.8560631-22.502104 52.2151211-6.838233 6.24567-14.913039 10.974197-23.697054 13.876764-7.708275 2.599783-18.642357 3.899674-32.802245 3.899674zm21.054698-19.852888h9.492287c7.959143.195981 15.902334-.811333 23.562412-2.988062 6.307654-2.151999 12.097531-5.602037 16.998597-10.129025 10.367462-9.487519 15.551193-21.867438 15.551193-37.1397561 0-15.272318-5.12202-27.7253909-15.366059-37.3592186-9.223002-8.5196351-22.81627-12.7850798-40.779804-12.7963343h-9.492286z"/><path d="m570 37.852888h-55.949519v33.645243h54.317307v19.8528879h-54.317307v46.7960931h55.949519v19.852888h-77v-140h77z"/><path d="m624 162h28.006165v-66.7613022h47.247688v-26.6504084h-47.247688v-26.937881h48.993835v-26.6504084h-77z"/><path d="m824.163814 102.564363c0 11.400207-1.680929 19.584107-5.227689 24.33279-5.210881 7.173542-12.422066 10.659277-22.020171 10.659277-9.598106 0-16.809291-3.485735-21.852079-10.608759-3.496332-4.950755-5.261308-13.151494-5.261308-24.383308v-87.564363h-27.802567v93.272886c0 15.542675 4.925122 28.626811 14.657702 38.730392 10.61853 10.870054 25.160385 16.996722 40.342298 16.996722s29.723768-6.126668 40.342298-16.996722c9.71577-10.103581 14.657702-23.154039 14.657702-38.730392v-93.1886895h-27.836186z"/><path d="m1005.10909 106.885317-102.10909-106.885317v161.434501h27.890909v-93.0664153l102.109091 106.6319143v-160.42089h-27.89091z"/><path d="m1176.2973 33.9562867c-7.16722-6.6621683-15.72365-11.6467848-25.05068-14.593466-8.44594-2.891637-20.08446-4.3628207-34.47635-4.3628207h-32.77027v147h32.41554c14.51014 0 25.94595-1.369723 33.93581-4.058438 9.26109-3.060761 17.77782-8.032304 25-14.593466 15.74324-13.91706 23.64865-32.382952 23.64865-54.8396409 0-22.4566893-7.58446-40.7365697-22.7027-54.5521684zm-5.28716 54.5521684c0 14.3905439-4.74663 25.7203499-14.51014 34.6320029-4.5607 4.18272-9.93868 7.372688-15.79392 9.368227-7.37304 2.070727-15.01351 3.028244-22.66892 2.840907h-6.14865v-93.6991836h6.14865c17.06081 0 30.06757 4.0077073 38.61487 11.8371103 9.66216 9.0469343 14.35811 20.4782008 14.35811 35.0209364z"/></g></g></svg>